<mxfile host="65bd71144e">
    <diagram id="0_qqqWH9GeMHX-A1EFkC" name="深度水下图像增强网络（DSIEN）">
        <mxGraphModel dx="1944" dy="784" grid="1" gridSize="10" guides="1" tooltips="1" connect="1" arrows="1" fold="1" page="1" pageScale="1" pageWidth="850" pageHeight="1100" math="0" shadow="0">
            <root>
                <mxCell id="0"/>
                <mxCell id="1" parent="0"/>
                <mxCell id="3" value="" style="sketch=0;outlineConnect=0;fontColor=#232F3E;gradientColor=none;fillColor=#D45B07;strokeColor=none;dashed=0;verticalLabelPosition=bottom;verticalAlign=top;align=center;html=1;fontSize=12;fontStyle=0;aspect=fixed;pointerEvents=1;shape=mxgraph.aws4.container_registry_image;" vertex="1" parent="1">
                    <mxGeometry y="130" width="80" height="80" as="geometry"/>
                </mxCell>
                <mxCell id="5" value="&lt;font style=&quot;font-size: 27px;&quot;&gt;数据采集层&lt;br&gt;（传感器、摄像机、声呐）等&lt;br&gt;&lt;/font&gt;" style="rounded=0;whiteSpace=wrap;html=1;fillColor=#dae8fc;strokeColor=#6c8ebf;" vertex="1" parent="1">
                    <mxGeometry x="260" y="120" width="370" height="100" as="geometry"/>
                </mxCell>
                <mxCell id="6" value="&lt;font style=&quot;&quot;&gt;&lt;span style=&quot;font-size: 27px;&quot;&gt;图片预处理&lt;/span&gt;&lt;br&gt;&lt;font style=&quot;font-size: 24px;&quot;&gt;（噪声去除、对比度增强、颜色校正、增强）&lt;/font&gt;&lt;br&gt;&lt;/font&gt;" style="rounded=0;whiteSpace=wrap;html=1;fillColor=#dae8fc;strokeColor=#6c8ebf;" vertex="1" parent="1">
                    <mxGeometry x="197.5" y="310" width="495" height="100" as="geometry"/>
                </mxCell>
                <mxCell id="7" value="&lt;font style=&quot;&quot;&gt;&lt;span style=&quot;font-size: 27px;&quot;&gt;特征提取&lt;/span&gt;&lt;br&gt;&lt;font style=&quot;font-size: 24px;&quot;&gt;（卷积、池化、激活）&lt;/font&gt;&lt;br&gt;&lt;/font&gt;" style="rounded=0;whiteSpace=wrap;html=1;fillColor=#dae8fc;strokeColor=#6c8ebf;" vertex="1" parent="1">
                    <mxGeometry x="282" y="510" width="286.25" height="100" as="geometry"/>
                </mxCell>
                <mxCell id="8" value="&lt;font style=&quot;&quot;&gt;&lt;span style=&quot;font-size: 27px;&quot;&gt;增强网络&lt;/span&gt;&lt;br&gt;&lt;font style=&quot;font-size: 24px;&quot;&gt;（卷积层、残差连接、增强）&lt;/font&gt;&lt;br&gt;&lt;/font&gt;" style="rounded=0;whiteSpace=wrap;html=1;fillColor=#dae8fc;strokeColor=#6c8ebf;" vertex="1" parent="1">
                    <mxGeometry x="255" y="720" width="352.5" height="100" as="geometry"/>
                </mxCell>
                <mxCell id="9" value="&lt;font style=&quot;&quot;&gt;&lt;span style=&quot;font-size: 27px;&quot;&gt;融合与细化&lt;/span&gt;&lt;br&gt;&lt;font style=&quot;font-size: 24px;&quot;&gt;（特征串联、跳跃连接、重缩放）&lt;/font&gt;&lt;br&gt;&lt;/font&gt;" style="rounded=0;whiteSpace=wrap;html=1;fillColor=#dae8fc;strokeColor=#6c8ebf;" vertex="1" parent="1">
                    <mxGeometry x="239.5" y="930" width="372" height="100" as="geometry"/>
                </mxCell>
                <mxCell id="10" value="&lt;font style=&quot;&quot;&gt;&lt;span style=&quot;font-size: 27px;&quot;&gt;重建网络&lt;/span&gt;&lt;br&gt;&lt;font style=&quot;font-size: 24px;&quot;&gt;（反卷积、上采样、激活、生成输出）&lt;/font&gt;&lt;br&gt;&lt;/font&gt;" style="rounded=0;whiteSpace=wrap;html=1;fillColor=#dae8fc;strokeColor=#6c8ebf;" vertex="1" parent="1">
                    <mxGeometry x="210" y="1140" width="452" height="100" as="geometry"/>
                </mxCell>
                <mxCell id="11" value="&lt;font style=&quot;&quot;&gt;&lt;span style=&quot;font-size: 27px;&quot;&gt;计算损失&lt;/span&gt;&lt;br&gt;&lt;font style=&quot;font-size: 24px;&quot;&gt;（像素差异、L2正则化）&lt;/font&gt;&lt;br&gt;&lt;/font&gt;" style="rounded=0;whiteSpace=wrap;html=1;fillColor=#dae8fc;strokeColor=#6c8ebf;" vertex="1" parent="1">
                    <mxGeometry x="260" y="1350" width="341" height="100" as="geometry"/>
                </mxCell>
                <mxCell id="12" value="&lt;font style=&quot;&quot;&gt;&lt;span style=&quot;font-size: 27px;&quot;&gt;优化（训练）&lt;/span&gt;&lt;br&gt;&lt;font style=&quot;font-size: 24px;&quot;&gt;（反向传播、梯度下降）&lt;/font&gt;&lt;br&gt;&lt;/font&gt;" style="rounded=0;whiteSpace=wrap;html=1;fillColor=#dae8fc;strokeColor=#6c8ebf;" vertex="1" parent="1">
                    <mxGeometry x="210" y="1560" width="452" height="100" as="geometry"/>
                </mxCell>
                <mxCell id="14" value="&lt;span style=&quot;font-size: 27px;&quot;&gt;增强的输出图像&lt;/span&gt;" style="rounded=0;whiteSpace=wrap;html=1;fillColor=#dae8fc;strokeColor=#6c8ebf;" vertex="1" parent="1">
                    <mxGeometry x="304.75" y="1770" width="262.5" height="60" as="geometry"/>
                </mxCell>
                <mxCell id="15" value="&lt;font color=&quot;#0000ff&quot; style=&quot;font-size: 22px;&quot;&gt;输入图像&lt;br&gt;&lt;/font&gt;" style="text;html=1;align=center;verticalAlign=middle;resizable=0;points=[];autosize=1;strokeColor=none;fillColor=none;rotation=0;" vertex="1" parent="1">
                    <mxGeometry x="-15" y="220" width="110" height="40" as="geometry"/>
                </mxCell>
                <mxCell id="17" value="" style="endArrow=classic;html=1;fontSize=24;strokeWidth=3;" edge="1" parent="1">
                    <mxGeometry width="50" height="50" relative="1" as="geometry">
                        <mxPoint x="82" y="169.5" as="sourcePoint"/>
                        <mxPoint x="260" y="170" as="targetPoint"/>
                    </mxGeometry>
                </mxCell>
                <mxCell id="18" value="" style="endArrow=classic;html=1;strokeWidth=3;fontSize=24;" edge="1" parent="1">
                    <mxGeometry width="50" height="50" relative="1" as="geometry">
                        <mxPoint x="440" y="220" as="sourcePoint"/>
                        <mxPoint x="440" y="310" as="targetPoint"/>
                    </mxGeometry>
                </mxCell>
                <mxCell id="19" value="" style="endArrow=classic;html=1;strokeWidth=3;fontSize=24;entryX=0.555;entryY=-0.03;entryDx=0;entryDy=0;entryPerimeter=0;" edge="1" parent="1" target="7">
                    <mxGeometry width="50" height="50" relative="1" as="geometry">
                        <mxPoint x="440" y="410" as="sourcePoint"/>
                        <mxPoint x="440" y="500" as="targetPoint"/>
                    </mxGeometry>
                </mxCell>
                <mxCell id="20" value="" style="endArrow=classic;html=1;strokeWidth=3;fontSize=24;" edge="1" parent="1">
                    <mxGeometry width="50" height="50" relative="1" as="geometry">
                        <mxPoint x="440" y="610" as="sourcePoint"/>
                        <mxPoint x="441" y="720" as="targetPoint"/>
                    </mxGeometry>
                </mxCell>
                <mxCell id="21" value="" style="endArrow=classic;html=1;strokeWidth=3;fontSize=24;" edge="1" parent="1">
                    <mxGeometry width="50" height="50" relative="1" as="geometry">
                        <mxPoint x="440" y="820" as="sourcePoint"/>
                        <mxPoint x="441" y="930" as="targetPoint"/>
                    </mxGeometry>
                </mxCell>
                <mxCell id="22" value="" style="endArrow=classic;html=1;strokeWidth=3;fontSize=24;" edge="1" parent="1">
                    <mxGeometry width="50" height="50" relative="1" as="geometry">
                        <mxPoint x="440" y="1030" as="sourcePoint"/>
                        <mxPoint x="441" y="1140" as="targetPoint"/>
                    </mxGeometry>
                </mxCell>
                <mxCell id="23" value="" style="endArrow=classic;html=1;strokeWidth=3;fontSize=24;" edge="1" parent="1">
                    <mxGeometry width="50" height="50" relative="1" as="geometry">
                        <mxPoint x="435.5" y="1240" as="sourcePoint"/>
                        <mxPoint x="436.5" y="1350" as="targetPoint"/>
                    </mxGeometry>
                </mxCell>
                <mxCell id="24" value="" style="endArrow=classic;html=1;strokeWidth=3;fontSize=24;" edge="1" parent="1">
                    <mxGeometry width="50" height="50" relative="1" as="geometry">
                        <mxPoint x="435.5" y="1450" as="sourcePoint"/>
                        <mxPoint x="436.5" y="1560" as="targetPoint"/>
                    </mxGeometry>
                </mxCell>
                <mxCell id="25" value="" style="endArrow=classic;html=1;strokeWidth=3;fontSize=24;" edge="1" parent="1">
                    <mxGeometry width="50" height="50" relative="1" as="geometry">
                        <mxPoint x="435.5" y="1660" as="sourcePoint"/>
                        <mxPoint x="436.5" y="1770" as="targetPoint"/>
                    </mxGeometry>
                </mxCell>
            </root>
        </mxGraphModel>
    </diagram>
    <diagram id="5EijiBfzAy0JJuFVeW4y" name="多层次水下目标检测与分类系统架构">
        <mxGraphModel dx="2236" dy="784" grid="1" gridSize="10" guides="1" tooltips="1" connect="1" arrows="1" fold="1" page="1" pageScale="1" pageWidth="850" pageHeight="1100" math="0" shadow="0">
            <root>
                <mxCell id="0"/>
                <mxCell id="1" parent="0"/>
                <mxCell id="ha7BAqLng3fekqv_f1Cs-2" value="&lt;font style=&quot;font-size: 27px;&quot;&gt;数据采集层&lt;br&gt;（传感器、摄像机等）&lt;br&gt;&lt;/font&gt;" style="rounded=0;whiteSpace=wrap;html=1;fillColor=#f8cecc;strokeColor=#b85450;" vertex="1" parent="1">
                    <mxGeometry x="-330" y="100" width="370" height="100" as="geometry"/>
                </mxCell>
                <mxCell id="ha7BAqLng3fekqv_f1Cs-3" value="&lt;font style=&quot;&quot;&gt;&lt;span style=&quot;font-size: 27px;&quot;&gt;预处理&lt;/span&gt;&lt;br&gt;&lt;font style=&quot;font-size: 24px;&quot;&gt;（噪声去除、颜色校正、数据增强）&lt;/font&gt;&lt;br&gt;&lt;/font&gt;" style="rounded=0;whiteSpace=wrap;html=1;fillColor=#dae8fc;strokeColor=#6c8ebf;" vertex="1" parent="1">
                    <mxGeometry x="210" y="100" width="495" height="100" as="geometry"/>
                </mxCell>
                <mxCell id="ha7BAqLng3fekqv_f1Cs-4" value="&lt;font style=&quot;&quot;&gt;&lt;span style=&quot;font-size: 27px;&quot;&gt;特征提取&lt;/span&gt;&lt;br&gt;&lt;font style=&quot;font-size: 24px;&quot;&gt;（卷积层）&lt;/font&gt;&lt;br&gt;&lt;/font&gt;" style="rounded=0;whiteSpace=wrap;html=1;fillColor=#dae8fc;strokeColor=#6c8ebf;" vertex="1" parent="1">
                    <mxGeometry x="330" y="410" width="220" height="90" as="geometry"/>
                </mxCell>
                <mxCell id="ha7BAqLng3fekqv_f1Cs-5" value="&lt;font style=&quot;&quot;&gt;&lt;span style=&quot;font-size: 27px;&quot;&gt;输出&lt;/span&gt;&lt;br&gt;&lt;font style=&quot;font-size: 24px;&quot;&gt;（Detected.obj）&lt;/font&gt;&lt;br&gt;&lt;/font&gt;" style="rounded=0;whiteSpace=wrap;html=1;fillColor=#dae8fc;strokeColor=#6c8ebf;" vertex="1" parent="1">
                    <mxGeometry x="263.75" y="1730" width="352.5" height="100" as="geometry"/>
                </mxCell>
                <mxCell id="ha7BAqLng3fekqv_f1Cs-13" value="" style="endArrow=classic;html=1;strokeWidth=3;fontSize=24;" edge="1" parent="1">
                    <mxGeometry width="50" height="50" relative="1" as="geometry">
                        <mxPoint x="440" y="200" as="sourcePoint"/>
                        <mxPoint x="440" y="410" as="targetPoint"/>
                    </mxGeometry>
                </mxCell>
                <mxCell id="ha7BAqLng3fekqv_f1Cs-17" value="" style="endArrow=classic;html=1;strokeWidth=3;fontSize=24;entryX=0.5;entryY=0;entryDx=0;entryDy=0;" edge="1" parent="1" target="ha7BAqLng3fekqv_f1Cs-27">
                    <mxGeometry width="50" height="50" relative="1" as="geometry">
                        <mxPoint x="439.5" y="500" as="sourcePoint"/>
                        <mxPoint x="440.5" y="610" as="targetPoint"/>
                    </mxGeometry>
                </mxCell>
                <mxCell id="ha7BAqLng3fekqv_f1Cs-21" value="" style="endArrow=classic;html=1;strokeWidth=3;fontSize=24;entryX=-0.008;entryY=0.59;entryDx=0;entryDy=0;entryPerimeter=0;" edge="1" parent="1" target="ha7BAqLng3fekqv_f1Cs-3">
                    <mxGeometry width="50" height="50" relative="1" as="geometry">
                        <mxPoint x="40" y="160" as="sourcePoint"/>
                        <mxPoint x="160" y="160" as="targetPoint"/>
                    </mxGeometry>
                </mxCell>
                <mxCell id="ha7BAqLng3fekqv_f1Cs-22" value="&lt;font color=&quot;#0000ff&quot; style=&quot;font-size: 22px;&quot;&gt;原始数据&lt;br&gt;&lt;/font&gt;" style="text;html=1;align=center;verticalAlign=middle;resizable=0;points=[];autosize=1;strokeColor=none;fillColor=none;rotation=0;" vertex="1" parent="1">
                    <mxGeometry x="65" y="110" width="110" height="40" as="geometry"/>
                </mxCell>
                <mxCell id="ha7BAqLng3fekqv_f1Cs-23" value="&lt;font style=&quot;&quot;&gt;&lt;span style=&quot;font-size: 27px;&quot;&gt;深度映射和&lt;br&gt;环境理解&lt;/span&gt;&lt;br&gt;&lt;/font&gt;" style="rounded=0;whiteSpace=wrap;html=1;fillColor=#fff2cc;strokeColor=#d6b656;" vertex="1" parent="1">
                    <mxGeometry x="460" y="210" width="121.5" height="170" as="geometry"/>
                </mxCell>
                <mxCell id="ha7BAqLng3fekqv_f1Cs-24" value="&lt;font style=&quot;&quot;&gt;&lt;span style=&quot;font-size: 27px;&quot;&gt;多层特征学习&lt;/span&gt;&lt;br&gt;&lt;/font&gt;" style="rounded=0;whiteSpace=wrap;html=1;fillColor=#f8cecc;strokeColor=#b85450;" vertex="1" parent="1">
                    <mxGeometry x="326.88" y="960" width="226.25" height="80" as="geometry"/>
                </mxCell>
                <mxCell id="ha7BAqLng3fekqv_f1Cs-25" value="&lt;font style=&quot;&quot;&gt;&lt;span style=&quot;font-size: 27px;&quot;&gt;路径规划和导航&lt;/span&gt;&lt;br&gt;&lt;/font&gt;" style="rounded=0;whiteSpace=wrap;html=1;fillColor=#dae8fc;strokeColor=#6c8ebf;" vertex="1" parent="1">
                    <mxGeometry x="720" y="1750" width="286.25" height="80" as="geometry"/>
                </mxCell>
                <mxCell id="ha7BAqLng3fekqv_f1Cs-26" value="&lt;font style=&quot;&quot;&gt;&lt;span style=&quot;font-size: 27px;&quot;&gt;卷积分支 1&lt;/span&gt;&lt;br&gt;&lt;font style=&quot;font-size: 24px;&quot;&gt;（局部）&lt;/font&gt;&lt;br&gt;&lt;/font&gt;" style="rounded=0;whiteSpace=wrap;html=1;fillColor=#dae8fc;strokeColor=#6c8ebf;" vertex="1" parent="1">
                    <mxGeometry x="-10" y="730" width="220" height="90" as="geometry"/>
                </mxCell>
                <mxCell id="ha7BAqLng3fekqv_f1Cs-27" value="&lt;font style=&quot;&quot;&gt;&lt;span style=&quot;font-size: 27px;&quot;&gt;卷积分支 2&lt;/span&gt;&lt;br&gt;&lt;font style=&quot;font-size: 24px;&quot;&gt;（全局）&lt;/font&gt;&lt;br&gt;&lt;/font&gt;" style="rounded=0;whiteSpace=wrap;html=1;fillColor=#dae8fc;strokeColor=#6c8ebf;" vertex="1" parent="1">
                    <mxGeometry x="330" y="730" width="220" height="90" as="geometry"/>
                </mxCell>
                <mxCell id="ha7BAqLng3fekqv_f1Cs-28" value="&lt;font style=&quot;&quot;&gt;&lt;span style=&quot;font-size: 27px;&quot;&gt;卷积分支 3&lt;/span&gt;&lt;br&gt;&lt;font style=&quot;font-size: 24px;&quot;&gt;（纹理）&lt;/font&gt;&lt;br&gt;&lt;/font&gt;" style="rounded=0;whiteSpace=wrap;html=1;fillColor=#dae8fc;strokeColor=#6c8ebf;" vertex="1" parent="1">
                    <mxGeometry x="670" y="730" width="220" height="90" as="geometry"/>
                </mxCell>
                <mxCell id="ha7BAqLng3fekqv_f1Cs-29" value="&lt;font style=&quot;&quot;&gt;&lt;span style=&quot;font-size: 27px;&quot;&gt;卷积分支 4&lt;/span&gt;&lt;br&gt;&lt;font style=&quot;font-size: 24px;&quot;&gt;（上下文）&lt;/font&gt;&lt;br&gt;&lt;/font&gt;" style="rounded=0;whiteSpace=wrap;html=1;fillColor=#dae8fc;strokeColor=#6c8ebf;" vertex="1" parent="1">
                    <mxGeometry x="330.01" y="1180" width="220" height="90" as="geometry"/>
                </mxCell>
                <mxCell id="ha7BAqLng3fekqv_f1Cs-30" value="&lt;font style=&quot;&quot;&gt;&lt;span style=&quot;font-size: 27px;&quot;&gt;避障和碰撞&lt;/span&gt;&lt;br&gt;&lt;/font&gt;" style="rounded=0;whiteSpace=wrap;html=1;fillColor=#dae8fc;strokeColor=#6c8ebf;" vertex="1" parent="1">
                    <mxGeometry x="-160" y="1750" width="286.25" height="80" as="geometry"/>
                </mxCell>
                <mxCell id="ha7BAqLng3fekqv_f1Cs-31" value="&lt;font style=&quot;&quot;&gt;&lt;span style=&quot;font-size: 27px;&quot;&gt;多尺度特征融合&lt;/span&gt;&lt;br&gt;&lt;/font&gt;" style="rounded=0;whiteSpace=wrap;html=1;fillColor=#f8cecc;strokeColor=#b85450;" vertex="1" parent="1">
                    <mxGeometry x="296.89" y="1360" width="286.25" height="80" as="geometry"/>
                </mxCell>
                <mxCell id="ha7BAqLng3fekqv_f1Cs-32" value="&lt;font style=&quot;&quot;&gt;&lt;span style=&quot;font-size: 27px;&quot;&gt;检测和分类&lt;/span&gt;&lt;br&gt;&lt;/font&gt;" style="rounded=0;whiteSpace=wrap;html=1;fillColor=#dae8fc;strokeColor=#6c8ebf;" vertex="1" parent="1">
                    <mxGeometry x="296.89" y="1540" width="286.25" height="80" as="geometry"/>
                </mxCell>
                <mxCell id="ha7BAqLng3fekqv_f1Cs-34" value="&lt;font style=&quot;&quot;&gt;&lt;span style=&quot;font-size: 27px;&quot;&gt;控制&lt;br&gt;和&lt;br&gt;动作&lt;/span&gt;&lt;br&gt;&lt;font style=&quot;font-size: 24px;&quot;&gt;（油门、转向等）&lt;/font&gt;&lt;br&gt;&lt;/font&gt;" style="rounded=0;whiteSpace=wrap;html=1;fillColor=#fff2cc;strokeColor=#d6b656;" vertex="1" parent="1">
                    <mxGeometry x="340" y="1960" width="200" height="210" as="geometry"/>
                </mxCell>
                <mxCell id="ha7BAqLng3fekqv_f1Cs-35" value="" style="endArrow=classic;html=1;strokeWidth=3;fontSize=24;entryX=0.591;entryY=0.011;entryDx=0;entryDy=0;entryPerimeter=0;" edge="1" parent="1" target="ha7BAqLng3fekqv_f1Cs-28">
                    <mxGeometry width="50" height="50" relative="1" as="geometry">
                        <mxPoint x="440" y="640" as="sourcePoint"/>
                        <mxPoint x="440" y="860" as="targetPoint"/>
                        <Array as="points">
                            <mxPoint x="800" y="640"/>
                        </Array>
                    </mxGeometry>
                </mxCell>
                <mxCell id="ha7BAqLng3fekqv_f1Cs-36" value="" style="endArrow=classic;html=1;strokeWidth=3;fontSize=24;entryX=0.409;entryY=0;entryDx=0;entryDy=0;entryPerimeter=0;" edge="1" parent="1" target="ha7BAqLng3fekqv_f1Cs-26">
                    <mxGeometry width="50" height="50" relative="1" as="geometry">
                        <mxPoint x="439.5" y="640" as="sourcePoint"/>
                        <mxPoint x="440" y="870" as="targetPoint"/>
                        <Array as="points">
                            <mxPoint x="80" y="640"/>
                        </Array>
                    </mxGeometry>
                </mxCell>
                <mxCell id="ha7BAqLng3fekqv_f1Cs-37" value="" style="endArrow=classic;html=1;strokeWidth=3;fontSize=24;" edge="1" parent="1">
                    <mxGeometry width="50" height="50" relative="1" as="geometry">
                        <mxPoint x="439.5" y="820" as="sourcePoint"/>
                        <mxPoint x="440" y="960" as="targetPoint"/>
                    </mxGeometry>
                </mxCell>
                <mxCell id="ha7BAqLng3fekqv_f1Cs-39" value="" style="endArrow=classic;html=1;strokeWidth=3;fontSize=24;entryX=0;entryY=0.5;entryDx=0;entryDy=0;" edge="1" parent="1" target="ha7BAqLng3fekqv_f1Cs-24">
                    <mxGeometry width="50" height="50" relative="1" as="geometry">
                        <mxPoint x="80" y="820" as="sourcePoint"/>
                        <mxPoint x="300" y="1090" as="targetPoint"/>
                        <Array as="points">
                            <mxPoint x="80" y="1000"/>
                        </Array>
                    </mxGeometry>
                </mxCell>
                <mxCell id="ha7BAqLng3fekqv_f1Cs-40" value="" style="endArrow=classic;html=1;strokeWidth=3;fontSize=24;entryX=1;entryY=0.5;entryDx=0;entryDy=0;" edge="1" parent="1" target="ha7BAqLng3fekqv_f1Cs-24">
                    <mxGeometry width="50" height="50" relative="1" as="geometry">
                        <mxPoint x="800" y="820" as="sourcePoint"/>
                        <mxPoint x="560" y="1000" as="targetPoint"/>
                        <Array as="points">
                            <mxPoint x="800" y="1000"/>
                        </Array>
                    </mxGeometry>
                </mxCell>
                <mxCell id="ha7BAqLng3fekqv_f1Cs-41" value="" style="endArrow=classic;html=1;strokeWidth=3;fontSize=24;" edge="1" parent="1">
                    <mxGeometry width="50" height="50" relative="1" as="geometry">
                        <mxPoint x="439.51" y="1040" as="sourcePoint"/>
                        <mxPoint x="440.01" y="1180" as="targetPoint"/>
                    </mxGeometry>
                </mxCell>
                <mxCell id="ha7BAqLng3fekqv_f1Cs-42" value="" style="endArrow=classic;html=1;strokeWidth=3;fontSize=24;" edge="1" parent="1">
                    <mxGeometry width="50" height="50" relative="1" as="geometry">
                        <mxPoint x="439.5000000000002" y="1270" as="sourcePoint"/>
                        <mxPoint x="440" y="1360" as="targetPoint"/>
                    </mxGeometry>
                </mxCell>
                <mxCell id="ha7BAqLng3fekqv_f1Cs-43" value="" style="endArrow=classic;html=1;strokeWidth=3;fontSize=24;entryX=0.5;entryY=0;entryDx=0;entryDy=0;" edge="1" parent="1" target="ha7BAqLng3fekqv_f1Cs-32">
                    <mxGeometry width="50" height="50" relative="1" as="geometry">
                        <mxPoint x="439.5" y="1440" as="sourcePoint"/>
                        <mxPoint x="440" y="1530" as="targetPoint"/>
                    </mxGeometry>
                </mxCell>
                <mxCell id="ha7BAqLng3fekqv_f1Cs-44" value="" style="endArrow=classic;html=1;strokeWidth=3;fontSize=24;entryX=0.5;entryY=0;entryDx=0;entryDy=0;" edge="1" parent="1" target="ha7BAqLng3fekqv_f1Cs-5">
                    <mxGeometry width="50" height="50" relative="1" as="geometry">
                        <mxPoint x="439.5" y="1620" as="sourcePoint"/>
                        <mxPoint x="440.0149999999999" y="1720" as="targetPoint"/>
                    </mxGeometry>
                </mxCell>
                <mxCell id="ha7BAqLng3fekqv_f1Cs-45" value="" style="endArrow=classic;html=1;strokeWidth=3;fontSize=24;entryX=0.447;entryY=-0.012;entryDx=0;entryDy=0;entryPerimeter=0;" edge="1" parent="1" target="ha7BAqLng3fekqv_f1Cs-25">
                    <mxGeometry width="50" height="50" relative="1" as="geometry">
                        <mxPoint x="439.5" y="1680" as="sourcePoint"/>
                        <mxPoint x="440" y="1790" as="targetPoint"/>
                        <Array as="points">
                            <mxPoint x="848" y="1680"/>
                        </Array>
                    </mxGeometry>
                </mxCell>
                <mxCell id="ha7BAqLng3fekqv_f1Cs-46" value="" style="endArrow=classic;html=1;strokeWidth=3;fontSize=24;entryX=0.559;entryY=0;entryDx=0;entryDy=0;entryPerimeter=0;" edge="1" parent="1" target="ha7BAqLng3fekqv_f1Cs-30">
                    <mxGeometry width="50" height="50" relative="1" as="geometry">
                        <mxPoint x="439.51" y="1680" as="sourcePoint"/>
                        <mxPoint x="440.01" y="1790" as="targetPoint"/>
                        <Array as="points">
                            <mxPoint y="1680"/>
                        </Array>
                    </mxGeometry>
                </mxCell>
                <mxCell id="ha7BAqLng3fekqv_f1Cs-48" value="" style="endArrow=classic;html=1;strokeWidth=3;fontSize=24;entryX=0.5;entryY=0;entryDx=0;entryDy=0;" edge="1" parent="1" target="ha7BAqLng3fekqv_f1Cs-34">
                    <mxGeometry width="50" height="50" relative="1" as="geometry">
                        <mxPoint x="850" y="1830" as="sourcePoint"/>
                        <mxPoint x="850.5" y="1940" as="targetPoint"/>
                        <Array as="points">
                            <mxPoint x="850" y="1920"/>
                            <mxPoint x="440" y="1920"/>
                        </Array>
                    </mxGeometry>
                </mxCell>
                <mxCell id="ha7BAqLng3fekqv_f1Cs-49" value="" style="endArrow=classic;html=1;strokeWidth=3;fontSize=24;" edge="1" parent="1">
                    <mxGeometry width="50" height="50" relative="1" as="geometry">
                        <mxPoint x="-1" y="1830" as="sourcePoint"/>
                        <mxPoint x="440" y="1960" as="targetPoint"/>
                        <Array as="points">
                            <mxPoint x="-1" y="1920"/>
                            <mxPoint x="440" y="1920"/>
                        </Array>
                    </mxGeometry>
                </mxCell>
                <mxCell id="ha7BAqLng3fekqv_f1Cs-50" value="" style="endArrow=classic;html=1;strokeWidth=3;fontSize=24;" edge="1" parent="1">
                    <mxGeometry width="50" height="50" relative="1" as="geometry">
                        <mxPoint x="583.14" y="1580.5" as="sourcePoint"/>
                        <mxPoint x="440" y="1960" as="targetPoint"/>
                        <Array as="points">
                            <mxPoint x="1040" y="1580"/>
                            <mxPoint x="1040" y="1920"/>
                            <mxPoint x="440" y="1920"/>
                        </Array>
                    </mxGeometry>
                </mxCell>
            </root>
        </mxGraphModel>
    </diagram>
</mxfile>